<svg xmlns="http://www.w3.org/2000/svg" width="805" height="600"><rect width="805" height="600" x="0" y="0" fill="#FFFFFF" id="backgorund"/><g id="viz"><clipPath id="serieClipPath"><rect x="-50" y="-10" width="805" height="600"/></clipPath><g transform="translate(0,0)"><g transform="translate(50,10)" clip-path="url(#serieClipPath)"><g id="axis"><g transform="translate(0,570)" fill="none" font-size="10" font-family="sans-serif" text-anchor="middle"><path class="domain" stroke="currentColor" d="M0.5,6V0.5H740.5V6"/><g class="tick" opacity="1" transform="translate(0.5,0)"><line stroke="currentColor" y2="6"/><text fill="currentColor" y="9" dy="0.71em">March</text></g><g class="tick" opacity="1" transform="translate(53.357142857142854,0)"><line stroke="currentColor" y2="6"/><text fill="currentColor" y="9" dy="0.71em">Thu 03</text></g><g class="tick" opacity="1" transform="translate(106.21428571428571,0)"><line stroke="currentColor" y2="6"/><text fill="currentColor" y="9" dy="0.71em">Sat 05</text></g><g class="tick" opacity="1" transform="translate(159.07142857142856,0)"><line stroke="currentColor" y2="6"/><text fill="currentColor" y="9" dy="0.71em">Mon 07</text></g><g class="tick" opacity="1" transform="translate(211.92857142857142,0)"><line stroke="currentColor" y2="6"/><text fill="currentColor" y="9" dy="0.71em">Wed 09</text></g><g class="tick" opacity="1" transform="translate(264.7857142857143,0)"><line stroke="currentColor" y2="6"/><text fill="currentColor" y="9" dy="0.71em">Fri 11</text></g><g class="tick" opacity="1" transform="translate(317.6428571428571,0)"><line stroke="currentColor" y2="6"/><text fill="currentColor" y="9" dy="0.71em">Mar 13</text></g><g class="tick" opacity="1" transform="translate(370.5,0)"><line stroke="currentColor" y2="6"/><text fill="currentColor" y="9" dy="0.71em">Tue 15</text></g><g class="tick" opacity="1" transform="translate(423.35714285714283,0)"><line stroke="currentColor" y2="6"/><text fill="currentColor" y="9" dy="0.71em">Thu 17</text></g><g class="tick" opacity="1" transform="translate(476.2142857142857,0)"><line stroke="currentColor" y2="6"/><text fill="currentColor" y="9" dy="0.71em">Sat 19</text></g><g class="tick" opacity="1" transform="translate(529.0714285714286,0)"><line stroke="currentColor" y2="6"/><text fill="currentColor" y="9" dy="0.71em">Mon 21</text></g><g class="tick" opacity="1" transform="translate(581.9285714285714,0)"><line stroke="currentColor" y2="6"/><text fill="currentColor" y="9" dy="0.71em">Wed 23</text></g><g class="tick" opacity="1" transform="translate(634.7857142857142,0)"><line stroke="currentColor" y2="6"/><text fill="currentColor" y="9" dy="0.71em">Fri 25</text></g><g class="tick" opacity="1" transform="translate(687.6428571428571,0)"><line stroke="currentColor" y2="6"/><text fill="currentColor" y="9" dy="0.71em">Mar 27</text></g><g class="tick" opacity="1" transform="translate(740.5,0)"><line stroke="currentColor" y2="6"/><text fill="currentColor" y="9" dy="0.71em">Tue 29</text></g><text x="740" dy="-5" text-anchor="end" style="font-family: Arial, sans-serif; font-size: 12px; fill: rgb(123, 123, 123); font-weight: bold;">日期</text></g><g transform="translate(0,0)" fill="none" font-size="10" font-family="sans-serif" text-anchor="end"><path class="domain" stroke="currentColor" d="M0.5,570.5V0.5"/><g class="tick" opacity="1" transform="translate(0,570.5)"><line stroke="currentColor" x2="-6"/><text fill="currentColor" x="-9" dy="0.32em">10,000</text></g><g class="tick" opacity="1" transform="translate(0,489.0714285714286)"><line stroke="currentColor" x2="-6"/><text fill="currentColor" x="-9" dy="0.32em">15,000</text></g><g class="tick" opacity="1" transform="translate(0,407.64285714285717)"><line stroke="currentColor" x2="-6"/><text fill="currentColor" x="-9" dy="0.32em">20,000</text></g><g class="tick" opacity="1" transform="translate(0,326.2142857142857)"><line stroke="currentColor" x2="-6"/><text fill="currentColor" x="-9" dy="0.32em">25,000</text></g><g class="tick" opacity="1" transform="translate(0,244.7857142857143)"><line stroke="currentColor" x2="-6"/><text fill="currentColor" x="-9" dy="0.32em">30,000</text></g><g class="tick" opacity="1" transform="translate(0,163.35714285714286)"><line stroke="currentColor" x2="-6"/><text fill="currentColor" x="-9" dy="0.32em">35,000</text></g><g class="tick" opacity="1" transform="translate(0,81.92857142857146)"><line stroke="currentColor" x2="-6"/><text fill="currentColor" x="-9" dy="0.32em">40,000</text></g><g class="tick" opacity="1" transform="translate(0,0.5)"><line stroke="currentColor" x2="-6"/><text fill="currentColor" x="-9" dy="0.32em">45,000</text></g><text x="4" text-anchor="start" dominant-baseline="hanging" style="font-family: Arial, sans-serif; font-size: 12px; fill: rgb(123, 123, 123); font-weight: bold;">成交量</text></g></g><g id="viz"><g><path d="M26.428571428571427,459.98999999999995C39.64285714285714,459.98999999999995,39.64285714285714,347.7,52.857142857142854,347.7C92.5,347.7,92.5,369.7345714285714,132.14285714285714,369.7345714285714C145.35714285714283,369.7345714285714,145.35714285714283,319.52571428571423,158.57142857142856,319.52571428571423C171.78571428571428,319.52571428571423,171.78571428571428,328.28742857142856,185,328.28742857142856C198.21428571428572,328.28742857142856,198.21428571428572,376.26514285714285,211.42857142857142,376.26514285714285C224.64285714285714,376.26514285714285,224.64285714285714,321.85457142857143,237.85714285714286,321.85457142857143C277.5,321.85457142857143,277.5,375.36942857142856,317.1428571428571,375.36942857142856C330.35714285714283,375.36942857142856,330.35714285714283,391.80171428571424,343.57142857142856,391.80171428571424C356.7857142857143,391.80171428571424,356.7857142857143,349.27971428571425,370,349.27971428571425C383.2142857142857,349.27971428571425,383.2142857142857,363.18771428571426,396.42857142857144,363.18771428571426C409.6428571428571,363.18771428571426,409.6428571428571,185.26628571428571,422.85714285714283,185.26628571428571C462.5,185.26628571428571,462.5,534.5134285714286,502.14285714285717,534.5134285714286C515.3571428571429,534.5134285714286,515.3571428571429,431.26199999999994,528.5714285714286,431.26199999999994C541.7857142857142,431.26199999999994,541.7857142857142,5.683714285714256,555,5.683714285714256C568.2142857142858,5.683714285714256,568.2142857142858,274.82142857142856,581.4285714285714,274.82142857142856C594.6428571428571,274.82142857142856,594.6428571428571,361.0054285714286,607.8571428571429,361.0054285714286C647.5,361.0054285714286,647.5,465.05485714285714,687.1428571428571,465.05485714285714C700.3571428571429,465.05485714285714,700.3571428571429,445.95171428571433,713.5714285714286,445.95171428571433C726.7857142857142,445.95171428571433,726.7857142857142,446.73342857142853,740,446.73342857142853" stroke="#1f77b4" fill="none"/><text font-family="sans-serif" font-size="10" class="labels" x="555" y="5.683714285714256" dx="0" dy="-4" text-anchor="middle"/></g></g></g><text y="4" x="4" style="font-family: Arial, sans-serif; font-size: 12px; fill: black; font-weight: bold; dominant-baseline: hanging;"/></g><g id="grid"><rect x="0" y="0" width="805" height="600" fill="none" stroke="#ccc"/></g></g></svg>